{"title":"The.Swan.Princess.II.The.Secret.Of.The.Castle.1997.DVDRip.XviD-E","uid":6107898,"size":742722897,"categoryP":"video","categoryS":"movies","magnet":"?xt=urn:btih:dfac30106fe925c8c5ffc3a1512878f5dded14c0&amp;dn=The.Swan.Princess.II.The.Secret.Of.The.Castle.1997.DVDRip.XviD-E&amp;tr=udp%3A%2F%2Ftracker.openbittorrent.com%3A80&amp;tr=udp%3A%2F%2Fopen.demonii.com%3A1337&amp;tr=udp%3A%2F%2Ftracker.coppersurfer.tk%3A6969&amp;tr=udp%3A%2F%2Fexodus.desync.com%3A6969","seeders":3,"leechers":2,"uploader":"TvTeam","files":6,"time":1295233784,"description":". \n  &lt;a href=&quot;\nhttp://www.torrentday.com/&quot; rel=&quot;nofollow&quot; target=&quot;_NEW&quot;&gt;\nhttp://www.torrentday.com/&lt;/a&gt;        :     The Hottest Private Tracker On The Net!!!\n &lt;a href=&quot;\nhttp://www.torrentday.com&quot; rel=&quot;nofollow&quot; target=&quot;_NEW&quot;&gt;\nhttp://www.torrentday.com&lt;/a&gt;          :     Once &amp; For all ;)\n\n\n               www . TorrentDay . Com \n\n(((((((((((((= Enjoy No RAR releases =))))))))))))))))))))\n\n\n...................................NFO:....................................\n\n.                                                                                                     \n       \n     \n     \n       \n       \n     \n     \n                                         \n                                         \n                EXVID                    \n                                         \n         \n                                         \n         Filled the Archives             \n                                         \n         \n                                         \n                With:                    \n                                         \n         \n                                         \n                                    \n     E240                           \n                                    \n     SP               (C) 2009      \n                                         \n     \n     \n     \n                                                                                  \n                                                                                   \n    The.Swan.Princess.II.The.Secret.Of.The.Castle.1997.DVDRip.XviD-EXViD            \n                                                                                   \n                                                                                  \n     \n                                                                                               \nEXViD aims to iNTERNAL those releases which have been lost in the archives.\nEXViD aims to PRE non-internal releases which have poor sources and are likely skipped by others.\n &lt;a href=&quot;\nhttp://www.imdb.com/title/tt0120254/&quot; rel=&quot;nofollow&quot; target=&quot;_NEW&quot;&gt;\nhttp://www.imdb.com/title/tt0120254/&lt;/a&gt;\nSubtitles: PT\nDate: 2010.12\n\nDirector:\nRichard Rich\n\nGenres:\nAnimation | Family | Fantasy | Romance\n\nPlot:\nThe first wedding anniversary of Princess Odette and Prince Derek is distracted by field fires\nset by Knuckles. His master Clavius, wants to conquer the world, and he needs to capture a giant\norb to do that. Clavius kidnaps Queen Uberta and Odette with Derek have to save her.\n\nCast:\nCredited cast:\nMichelle Nicastro  ...  Odette (voice)  \nDouglas Sills  ...  Derek (voice)  \nJake Williamson  ...  Clavius (voice)  \nChristy Landers  ...  Uberta (voice)  \nDonald Sage Mackay  ...  Jean-Bob (voice)  \nDoug Stone  ...  Speed (voice)  \nSteve Vinovich  ...  Puffin (voice)  \nJoseph Medrano  ...  Lord Rogers (voice)  \nJames Arrington  ...  Chamberlain (voice)  \nJoey Camen  ...  Knuckles (voice)  \nOwen Miller  ...  Bromley (voice)  \nRosie Mann  ...  Bridget (voice)    \n\nStats:\nFormat                           : AVI\nFormat/Info                      : Audio Video Interleave\nFile size                        : 700 MiB\nDuration                         : 1h 8mn\nOverall bit rate                 : 1 428 Kbps\nWriting application              : VirtualDubMod 1.5.10.2 (build 2540/release)\nWriting library                  : VirtualDubMod build 2540/release\n\nVideo\nID                               : 0\nFormat                           : MPEG-4 Visual\nFormat profile                   : Advanced Simple@L5\nFormat settings, BVOP            : Yes\nFormat settings, QPel            : No\nFormat settings, GMC             : No warppoints\nFormat settings, Matrix          : Default (H.263)\nMuxing mode                      : Packed bitstream\nCodec ID                         : XVID\nCodec ID/Hint                    : XviD\nDuration                         : 1h 8mn\nBit rate                         : 1 227 Kbps\nWidth                            : 640 pixels\nHeight                           : 352 pixels\nDisplay aspect ratio             : 16:9\nFrame rate                       : 25.000 fps\nColor space                      : YUV\nChroma subsampling               : 4:2:0\nBit depth                        : 8 bits\nScan type                        : Progressive\nBits/(Pixel*Frame)               : 0.218\nStream size                      : 601 MiB (86%)\nWriting library                  : XviD 1.2.1 (UTC 2008-12-04)\n\nAudio\nID                               : 1\nFormat                           : AC-3\nFormat/Info                      : Audio Coding 3\nFormat profile                   : Dolby Digital\nMode extension                   : CM (complete main)\nCodec ID                         : 2000\nDuration                         : 1h 8mn\nBit rate mode                    : Constant\nBit rate                         : 192 Kbps\nChannel(s)                       : 2 channels\nChannel positions                : Front: L R\nSampling rate                    : 48.0 KHz\nBit depth                        : 16 bits\nStream size                      : 94.1 MiB (13%)\nAlignment                        : Split accross interleaves\nInterleave, duration             : 40 ms (1.00 video frame)\nInterleave, preload duration     : 500 ms\n\n\n\n\nRelease notes:\nEnjoy!\n\nLooking for:\n75TB+ Archives\nDUTCH/FLEMiSH Archives\n                                                                                                    \nGreets: CRBS EPiSODE FiCO FLS iLS KLASSiGER LiPSYNC MADE NODLABS RUNNER TNAN       \n   \n\n                                                                    ASCII DONE BY XX^NFO 2oo9","torrent":{"xt":"urn:btih:dfac30106fe925c8c5ffc3a1512878f5dded14c0","amp;dn":"The.Swan.Princess.II.The.Secret.Of.The.Castle.1997.DVDRip.XviD-E","amp;tr":["udp%3A%2F%2Ftracker.openbittorrent.com%3A80","udp%3A%2F%2Fopen.demonii.com%3A1337","udp%3A%2F%2Ftracker.coppersurfer.tk%3A6969","udp%3A%2F%2Fexodus.desync.com%3A6969"],"infoHash":"dfac30106fe925c8c5ffc3a1512878f5dded14c0","infoHashBuffer":{"type":"Buffer","data":[223,172,48,16,111,233,37,200,197,255,195,161,81,40,120,245,221,237,20,192]},"announce":[],"urlList":[]}}